<svg xmlns="http://www.w3.org/2000/svg" width="224.88" viewBox="0 0 224.88 225" height="225" version="1.0"><defs><clipPath id="a"><path d="M 22.515625 22.546875 L 202.421875 22.546875 L 202.421875 202.453125 L 22.515625 202.453125 Z M 22.515625 22.546875"/></clipPath></defs><g clip-path="url(#a)"><path fill="#FF5757" d="M 49.769531 22.546875 L 175.1875 22.546875 C 182.65625 22.546875 189.441406 25.605469 194.359375 30.527344 C 199.277344 35.453125 202.328125 42.246094 202.328125 49.722656 L 202.328125 175.296875 C 202.328125 182.773438 199.277344 189.570312 194.359375 194.492188 C 189.441406 199.414062 182.65625 202.472656 175.1875 202.472656 L 49.769531 202.472656 C 42.300781 202.472656 35.515625 199.414062 30.597656 194.492188 C 25.679688 189.570312 22.628906 182.773438 22.628906 175.296875 L 22.628906 49.722656 C 22.628906 42.246094 25.679688 35.453125 30.597656 30.527344 C 35.515625 25.605469 42.300781 22.546875 49.769531 22.546875"/></g><g fill="#FFF"><g><g><path d="M 58.875 -55.40625 C 59.914062 -55.40625 60.789062 -55.050781 61.5 -54.34375 C 62.207031 -53.632812 62.5625 -52.757812 62.5625 -51.71875 L 62.5625 -3.6875 C 62.5625 -2.644531 62.195312 -1.769531 61.46875 -1.0625 C 60.738281 -0.351562 59.875 0 58.875 0 C 57.832031 0 56.957031 -0.351562 56.25 -1.0625 C 55.539062 -1.769531 55.1875 -2.644531 55.1875 -3.6875 L 55.1875 -38.9375 L 38.015625 -3.96875 C 37.210938 -2.738281 36.148438 -2.125 34.828125 -2.125 C 33.265625 -2.125 32.128906 -2.859375 31.421875 -4.328125 L 14.46875 -38.3125 L 14.46875 -3.6875 C 14.46875 -2.644531 14.113281 -1.769531 13.40625 -1.0625 C 12.695312 -0.351562 11.820312 0 10.78125 0 C 9.738281 0 8.863281 -0.351562 8.15625 -1.0625 C 7.445312 -1.769531 7.09375 -2.644531 7.09375 -3.6875 L 7.09375 -51.71875 C 7.09375 -52.757812 7.445312 -53.632812 8.15625 -54.34375 C 8.863281 -55.050781 9.738281 -55.40625 10.78125 -55.40625 C 12.195312 -55.40625 13.285156 -54.742188 14.046875 -53.421875 L 35.109375 -11.203125 L 55.609375 -53.421875 C 56.367188 -54.742188 57.457031 -55.40625 58.875 -55.40625 Z M 58.875 -55.40625" transform="translate(48.353 110.11)"/></g></g></g><g fill="#FFF"><g><g><path d="M 48.515625 -5.171875 C 48.753906 -4.554688 48.875 -4.039062 48.875 -3.625 C 48.875 -2.625 48.519531 -1.769531 47.8125 -1.0625 C 47.101562 -0.351562 46.226562 0 45.1875 0 C 44.476562 0 43.800781 -0.195312 43.15625 -0.59375 C 42.519531 -1 42.0625 -1.554688 41.78125 -2.265625 L 37.8125 -12.203125 L 12.34375 -12.203125 L 8.296875 -2.265625 C 7.960938 -1.554688 7.488281 -1 6.875 -0.59375 C 6.257812 -0.195312 5.597656 0 4.890625 0 C 3.847656 0 2.984375 -0.363281 2.296875 -1.09375 C 1.617188 -1.832031 1.28125 -2.695312 1.28125 -3.6875 C 1.28125 -4.15625 1.394531 -4.695312 1.625 -5.3125 L 21.5625 -52.921875 C 22.269531 -54.578125 23.429688 -55.40625 25.046875 -55.40625 C 26.742188 -55.40625 27.898438 -54.578125 28.515625 -52.921875 Z M 14.828125 -18.296875 L 35.328125 -18.296875 L 25.1875 -43.5625 Z M 14.828125 -18.296875" transform="translate(126.662 110.11)"/></g></g></g><g fill="#FFF"><g><g><path d="M 47.53125 -55.40625 C 48.570312 -55.40625 49.382812 -55.117188 49.96875 -54.546875 C 50.5625 -53.984375 50.859375 -53.253906 50.859375 -52.359375 C 50.859375 -51.785156 50.71875 -51.164062 50.4375 -50.5 L 29.4375 -2.34375 C 28.820312 -0.78125 27.710938 0 26.109375 0 C 24.585938 0 23.472656 -0.78125 22.765625 -2.34375 L 1.984375 -49.875 C 1.609375 -50.863281 1.421875 -51.691406 1.421875 -52.359375 C 1.421875 -53.296875 1.710938 -54.035156 2.296875 -54.578125 C 2.890625 -55.128906 3.707031 -55.40625 4.75 -55.40625 C 6.40625 -55.40625 7.539062 -54.671875 8.15625 -53.203125 L 26.03125 -10.359375 L 44.1875 -53.203125 C 44.519531 -54.054688 44.945312 -54.632812 45.46875 -54.9375 C 45.988281 -55.25 46.675781 -55.40625 47.53125 -55.40625 Z M 47.53125 -55.40625" transform="translate(54.806 173.076)"/></g></g></g><g fill="#FFF"><g><g><path d="M 10.78125 0 C 9.738281 0 8.863281 -0.351562 8.15625 -1.0625 C 7.445312 -1.769531 7.09375 -2.644531 7.09375 -3.6875 L 7.09375 -51.71875 C 7.09375 -52.800781 7.445312 -53.6875 8.15625 -54.375 C 8.863281 -55.0625 9.738281 -55.40625 10.78125 -55.40625 C 11.863281 -55.40625 12.75 -55.0625 13.4375 -54.375 C 14.125 -53.6875 14.46875 -52.800781 14.46875 -51.71875 L 14.46875 -3.6875 C 14.46875 -2.644531 14.125 -1.769531 13.4375 -1.0625 C 12.75 -0.351562 11.863281 0 10.78125 0 Z M 10.78125 0" transform="translate(107.508 173.076)"/></g></g></g><g fill="#FFF"><g><g><path d="M 24.6875 0.703125 C 20.101562 0.703125 15.929688 -0.332031 12.171875 -2.40625 C 8.410156 -4.488281 5.816406 -7.207031 4.390625 -10.5625 C 4.160156 -11.132812 4.046875 -11.609375 4.046875 -11.984375 C 4.046875 -12.691406 4.304688 -13.316406 4.828125 -13.859375 C 5.347656 -14.410156 6.054688 -14.78125 6.953125 -14.96875 C 7.097656 -15.007812 7.332031 -15.03125 7.65625 -15.03125 C 8.414062 -15.03125 9.140625 -14.804688 9.828125 -14.359375 C 10.515625 -13.910156 11.019531 -13.3125 11.34375 -12.5625 C 12.195312 -10.71875 13.875 -9.15625 16.375 -7.875 C 18.882812 -6.59375 21.65625 -5.953125 24.6875 -5.953125 C 28.226562 -5.953125 31.226562 -6.769531 33.6875 -8.40625 C 36.15625 -10.039062 37.390625 -12.273438 37.390625 -15.109375 C 37.390625 -17.804688 36.347656 -20.113281 34.265625 -22.03125 C 32.179688 -23.945312 29.007812 -25.113281 24.75 -25.53125 C 18.882812 -26.101562 14.273438 -27.816406 10.921875 -30.671875 C 7.566406 -33.535156 5.890625 -37.117188 5.890625 -41.421875 C 5.890625 -44.453125 6.75 -47.066406 8.46875 -49.265625 C 10.195312 -51.460938 12.5625 -53.140625 15.5625 -54.296875 C 18.570312 -55.460938 21.941406 -56.046875 25.671875 -56.046875 C 29.742188 -56.046875 33.175781 -55.21875 35.96875 -53.5625 C 38.757812 -51.90625 41.125 -49.539062 43.0625 -46.46875 C 43.625 -45.5625 43.90625 -44.707031 43.90625 -43.90625 C 43.90625 -42.863281 43.429688 -42.015625 42.484375 -41.359375 C 41.972656 -41.023438 41.359375 -40.859375 40.640625 -40.859375 C 39.929688 -40.859375 39.269531 -41.035156 38.65625 -41.390625 C 38.039062 -41.742188 37.566406 -42.226562 37.234375 -42.84375 C 35.960938 -44.96875 34.367188 -46.585938 32.453125 -47.703125 C 30.535156 -48.816406 28.113281 -49.375 25.1875 -49.375 C 21.59375 -49.375 18.679688 -48.675781 16.453125 -47.28125 C 14.234375 -45.882812 13.125 -43.863281 13.125 -41.21875 C 13.125 -38.757812 14.113281 -36.703125 16.09375 -35.046875 C 18.082031 -33.390625 21.632812 -32.300781 26.75 -31.78125 C 32.414062 -31.207031 36.8125 -29.488281 39.9375 -26.625 C 43.0625 -23.769531 44.625 -20.003906 44.625 -15.328125 C 44.625 -11.921875 43.703125 -9 41.859375 -6.5625 C 40.015625 -4.125 37.566406 -2.300781 34.515625 -1.09375 C 31.460938 0.101562 28.1875 0.703125 24.6875 0.703125 Z M 24.6875 0.703125" transform="translate(129.497 173.076)"/></g></g></g></svg>